<svg width="20" height="20" viewBox="0 0 20 20" fill="none" xmlns="http://www.w3.org/2000/svg">
  <mask id="mask">
    <rect width="20" height="20" fill="#fff" />
    <path fill-rule="evenodd" clip-rule="evenodd" d="M15 8.76355C15 12.2078 12.2078 15 8.76355 15C5.31925 15 2.5271 12.2078 2.5271 8.76355C2.5271 5.31925 5.31925 2.5271 8.76355 2.5271C12.2078 2.5271 15 5.31925 15 8.76355ZM12.5 10V7.5H5V10H12.5Z" fill="#000"/>
  </mask>
  <path fill-rule="evenodd" clip-rule="evenodd" d="M8.75 0C13.5825 0 17.5 3.91751 17.5 8.75C17.5 10.7105 16.8552 12.5204 15.7662 13.9792L20 18.2131L18.2131 20L13.9793 15.7662C12.5204 16.8552 10.7105 17.5 8.75 17.5C3.91751 17.5 0 13.5825 0 8.75C0 3.91751 3.91751 0 8.75 0Z" fill="#000" mask="url(#mask)" />
</svg>
